<svg width="24" height="42" viewBox="0 0 24 42" fill="none" xmlns="http://www.w3.org/2000/svg">
<path d="M14.8871 0.49176H9.12418L6.125 5.25522L11.6924 12.9273L18.741 1.97297L14.8871 0.49176Z" fill="#212AFF"/>
<path d="M9.09029 0.49176L13.7754 15.9605H8.92028L4.39873 9.50798C1.7383 5.71135 4.45433 0.49176 9.09029 0.49176Z" fill="#535AFA"/>
<path d="M14.8863 0.49176L10.2012 15.9605H15.0563L19.5779 9.50798C22.2383 5.71135 19.5223 0.49176 14.8863 0.49176Z" fill="#4950F3"/>
<path d="M7.30371 18.8238V18.7331C7.30371 16.1457 9.40121 14.0482 11.9886 14.0482C14.576 14.0482 16.6735 16.1457 16.6735 18.7331V18.8241L12.0001 20.0257L7.30371 18.8238Z" fill="#141AA5"/>
<path d="M23.8253 28.6708C23.4482 23.9583 20.1852 19.8193 15.6979 18.3449C10.9355 16.7802 5.56743 18.4515 2.53271 22.4407C-0.459328 26.3739 -0.668179 31.9155 2.01359 36.0648C4.80431 40.3826 10.2318 42.4541 15.187 41.0613C20.5857 39.5439 24.2797 34.2724 23.8253 28.6708Z" fill="#F9EF90"/>
<path d="M6.21259 30.7357C5.39613 26.9636 5.41482 23.0144 6.25576 19.2482C4.82678 20.0297 3.54888 21.105 2.53271 22.4408C-0.459328 26.374 -0.668179 31.9156 2.01359 36.0649C4.06744 39.2427 7.54955 41.2035 11.2204 41.4623C8.78243 38.318 7.05434 34.6248 6.21259 30.7357Z" fill="#F4D37F"/>
<path d="M11.9889 37.5731C7.60641 37.5731 4.04102 34.0076 4.04102 29.6252C4.04102 25.2427 7.60649 21.6772 11.9889 21.6772C16.3713 21.6772 19.9368 25.2427 19.9368 29.6252C19.9369 34.0076 16.3714 37.5731 11.9889 37.5731Z" fill="#F4D37F"/>
<path d="M6.20655 30.7307C5.7911 28.8113 5.59508 26.8453 5.6157 24.8815C4.62705 26.2064 4.04102 27.8487 4.04102 29.6252C4.04102 32.6553 5.74576 35.2945 8.24636 36.635C7.33706 34.7562 6.64809 32.7708 6.20655 30.7307Z" fill="#F3BE77"/>
<path d="M12.4988 25.4797L13.7021 27.6799C13.7555 27.7776 13.8358 27.8579 13.9334 27.9113L16.1336 29.1145C16.5373 29.3353 16.5373 29.915 16.1336 30.1358L13.9334 31.3391C13.8358 31.3925 13.7554 31.4727 13.7021 31.5704L12.4988 33.7706C12.2781 34.1742 11.6983 34.1742 11.4776 33.7706L10.2743 31.5704C10.2209 31.4727 10.1406 31.3924 10.043 31.3391L7.84278 30.1358C7.43912 29.915 7.43912 29.3353 7.84278 29.1145L10.043 27.9113C10.1406 27.8578 10.2209 27.7776 10.2743 27.6799L11.4776 25.4797C11.6984 25.0761 12.2781 25.0761 12.4988 25.4797Z" fill="#F7AD55"/>
</svg>
