<svg width="36" height="48" viewBox="0 0 36 48" fill="none" xmlns="http://www.w3.org/2000/svg">
<path d="M27.0195 35.0082H15.0195C13.915 35.0082 13.0195 35.9036 13.0195 37.0082C13.0195 38.1127 13.915 39.0082 15.0195 39.0082H27.0195C28.1241 39.0082 29.0195 38.1127 29.0195 37.0082C29.0195 35.9036 28.1241 35.0082 27.0195 35.0082Z" fill="#A163FE"/>
<path d="M27.0195 39.0082H15.0195C13.915 39.0082 13.0195 39.9036 13.0195 41.0082C13.0195 42.1127 13.915 43.0082 15.0195 43.0082H27.0195C28.1241 43.0082 29.0195 42.1127 29.0195 41.0082C29.0195 39.9036 28.1241 39.0082 27.0195 39.0082Z" fill="url(#paint0_linear_86_58233)"/>
<path d="M17.0195 43.0082H25.0195C25.0195 44.069 24.5981 45.0865 23.848 45.8366C23.0978 46.5868 22.0804 47.0082 21.0195 47.0082C19.9587 47.0082 18.9413 46.5868 18.1911 45.8366C17.441 45.0865 17.0195 44.069 17.0195 43.0082Z" fill="#B584FF"/>
<path d="M6.01953 16.0782C6.0322 19.7784 7.41847 23.342 9.90953 26.0782C12.1066 28.4747 13.5377 31.4728 14.0195 34.6882V35.0082H28.0195V34.7182C28.5527 31.4278 30.0251 28.3616 32.2595 25.8882C34.6889 23.1268 36.0136 19.5659 35.9795 15.8882C35.9223 12.0618 34.4173 8.39923 31.7676 5.63818C29.1179 2.87713 25.5203 1.22272 21.6995 1.00816C18.7926 0.871885 15.9088 1.58415 13.3995 3.05816" fill="url(#paint1_linear_86_58233)"/>
<path d="M20.0195 20.2582V14.0082H28.0195V35.0082H22.0195H20.0195V20.2582Z" fill="#B584FF"/>
<path d="M15.0895 7.00818C14.9049 7.00913 14.7242 6.95511 14.5703 6.85298C14.4165 6.75086 14.2966 6.60526 14.2258 6.43473C14.155 6.2642 14.1366 6.07647 14.1729 5.89543C14.2091 5.7144 14.2985 5.54826 14.4295 5.41818C14.5175 5.3333 14.5875 5.23155 14.6354 5.11901C14.6832 5.00647 14.7078 4.88545 14.7078 4.76318C14.7078 4.64091 14.6832 4.51989 14.6354 4.40735C14.5875 4.29481 14.5175 4.19306 14.4295 4.10818L12.9195 2.59818C12.8346 2.51017 12.7329 2.44017 12.6204 2.39236C12.5078 2.34454 12.3868 2.3199 12.2645 2.3199C12.1423 2.3199 12.0212 2.34454 11.9087 2.39236C11.7962 2.44017 11.6944 2.51017 11.6095 2.59818C11.4795 2.72921 11.3133 2.81856 11.1323 2.85485C10.9512 2.89113 10.7635 2.87271 10.593 2.80192C10.4224 2.73114 10.2768 2.61119 10.1747 2.45737C10.0726 2.30355 10.0186 2.12281 10.0195 1.93818C10.0195 1.69153 9.92155 1.45498 9.74714 1.28057C9.57273 1.10616 9.33618 1.00818 9.08953 1.00818H6.94953C6.70288 1.00818 6.46633 1.10616 6.29192 1.28057C6.11751 1.45498 6.01953 1.69153 6.01953 1.93818C6.02048 2.12281 5.96646 2.30355 5.86434 2.45737C5.76221 2.61119 5.61661 2.73114 5.44608 2.80192C5.27556 2.87271 5.08782 2.89113 4.90678 2.85485C4.72575 2.81856 4.55961 2.72921 4.42953 2.59818C4.34465 2.51017 4.2429 2.44017 4.13036 2.39236C4.01782 2.34454 3.8968 2.3199 3.77453 2.3199C3.65226 2.3199 3.53124 2.34454 3.4187 2.39236C3.30616 2.44017 3.20441 2.51017 3.11953 2.59818L1.60953 4.10818C1.52152 4.19306 1.45152 4.29481 1.40371 4.40735C1.3559 4.51989 1.33125 4.64091 1.33125 4.76318C1.33125 4.88545 1.3559 5.00647 1.40371 5.11901C1.45152 5.23155 1.52152 5.3333 1.60953 5.41818C1.74057 5.54826 1.82992 5.7144 1.8662 5.89543C1.90248 6.07647 1.88406 6.2642 1.81327 6.43473C1.74249 6.60526 1.62255 6.75086 1.46872 6.85298C1.3149 6.95511 1.13416 7.00913 0.949531 7.00818C0.70288 7.00818 0.466331 7.10616 0.291922 7.28057C0.117513 7.45498 0.0195312 7.69153 0.0195312 7.93818V10.0782C0.0195312 10.3248 0.117513 10.5614 0.291922 10.7358C0.466331 10.9102 0.70288 11.0082 0.949531 11.0082C1.13416 11.0072 1.3149 11.0613 1.46872 11.1634C1.62255 11.2655 1.74249 11.4111 1.81327 11.5816C1.88406 11.7522 1.90248 11.9399 1.8662 12.1209C1.82992 12.302 1.74057 12.4681 1.60953 12.5982C1.52152 12.6831 1.45152 12.7848 1.40371 12.8973C1.3559 13.0099 1.33125 13.1309 1.33125 13.2532C1.33125 13.3755 1.3559 13.4965 1.40371 13.609C1.45152 13.7215 1.52152 13.8233 1.60953 13.9082L3.11953 15.4182C3.20441 15.5062 3.30616 15.5762 3.4187 15.624C3.53124 15.6718 3.65226 15.6965 3.77453 15.6965C3.8968 15.6965 4.01782 15.6718 4.13036 15.624C4.2429 15.5762 4.34465 15.5062 4.42953 15.4182C4.55961 15.2871 4.72575 15.1978 4.90678 15.1615C5.08782 15.1252 5.27556 15.1437 5.44608 15.2144C5.61661 15.2852 5.76221 15.4052 5.86434 15.559C5.96646 15.7128 6.02048 15.8935 6.01953 16.0782C6.01953 16.3248 6.11751 16.5614 6.29192 16.7358C6.46633 16.9102 6.70288 17.0082 6.94953 17.0082H9.08953C9.33618 17.0082 9.57273 16.9102 9.74714 16.7358C9.92155 16.5614 10.0195 16.3248 10.0195 16.0782C10.0186 15.8935 10.0726 15.7128 10.1747 15.559C10.2768 15.4052 10.4224 15.2852 10.593 15.2144C10.7635 15.1437 10.9512 15.1252 11.1323 15.1615C11.3133 15.1978 11.4795 15.2871 11.6095 15.4182C11.6944 15.5062 11.7962 15.5762 11.9087 15.624C12.0212 15.6718 12.1423 15.6965 12.2645 15.6965C12.3868 15.6965 12.5078 15.6718 12.6204 15.624C12.7329 15.5762 12.8346 15.5062 12.9195 15.4182L14.4295 13.9082C14.5175 13.8233 14.5875 13.7215 14.6354 13.609C14.6832 13.4965 14.7078 13.3755 14.7078 13.2532C14.7078 13.1309 14.6832 13.0099 14.6354 12.8973C14.5875 12.7848 14.5175 12.6831 14.4295 12.5982C14.2985 12.4681 14.2091 12.302 14.1729 12.1209C14.1366 11.9399 14.155 11.7522 14.2258 11.5816C14.2966 11.4111 14.4165 11.2655 14.5703 11.1634C14.7242 11.0613 14.9049 11.0072 15.0895 11.0082C15.3362 11.0082 15.5727 10.9102 15.7471 10.7358C15.9215 10.5614 16.0195 10.3248 16.0195 10.0782V7.93818C16.0195 7.69153 15.9215 7.45498 15.7471 7.28057C15.5727 7.10616 15.3362 7.00818 15.0895 7.00818Z" fill="#B584FF"/>
<path d="M22.0195 35.0082H14.0195V21.0082L22.0195 20.0082V35.0082Z" fill="#B584FF"/>
<defs>
<linearGradient id="paint0_linear_86_58233" x1="317.02" y1="203.008" x2="573.02" y2="203.008" gradientUnits="userSpaceOnUse">
<stop offset="0.666667" stop-color="#B584FF"/>
<stop offset="1" stop-color="#935B9D"/>
</linearGradient>
<linearGradient id="paint1_linear_86_58233" x1="365.547" y1="613.288" x2="1264.37" y2="613.288" gradientUnits="userSpaceOnUse">
<stop stop-color="#A163FE"/>
<stop offset="1" stop-color="#A265FE" stop-opacity="0"/>
</linearGradient>
</defs>
</svg>
