<svg width="48" height="48" viewBox="0 0 48 48" fill="none" xmlns="http://www.w3.org/2000/svg">
<path d="M22.188 13.783C20.6802 15.3881 20.6802 17.9272 22.188 19.5322C23.1719 20.58 24.5558 21.0074 25.8669 20.8144C26.436 20.7305 26.9436 21.1809 26.9436 21.756V24.8294C26.9436 25.9929 26.0005 26.936 24.837 26.936H21.7637C21.1886 26.936 20.7383 26.4285 20.8221 25.8593C21.015 24.5482 20.5877 23.1643 19.54 22.1803C17.935 20.6725 15.3958 20.6725 13.7909 22.1803C12.7432 23.1642 12.3159 24.5481 12.5088 25.8593C12.5926 26.4284 12.1422 26.936 11.5672 26.936H8.49357C7.33009 26.936 6.38705 25.9929 6.38705 24.8294V21.756C6.38705 21.1809 5.87881 20.7305 5.30964 20.8144C3.99927 21.0073 2.6147 20.58 1.63083 19.5322C0.123055 17.9271 0.123055 15.388 1.63083 13.783C2.6147 12.7352 3.99936 12.3078 5.30964 12.5008C5.87881 12.5846 6.38705 12.1343 6.38705 11.5592V8.48566C6.38705 7.32215 7.33009 6.37908 8.49357 6.37908H11.5669C12.142 6.37908 12.5923 5.87082 12.5085 5.30164C12.3156 3.99122 12.7429 2.60662 13.7907 1.62263C15.3956 0.114804 17.9348 0.114804 19.5397 1.62263C20.5874 2.60662 21.0147 3.99122 20.8219 5.30164C20.738 5.87073 21.1884 6.37908 21.7634 6.37908H24.8368C26.0002 6.37908 26.9433 7.32215 26.9433 8.48566V11.5591C26.9433 12.1342 26.4358 12.5846 25.8666 12.5007C24.5558 12.3079 23.1719 12.7352 22.188 13.783Z" fill="url(#paint0_linear_61_33736)"/>
<path d="M1.63078 19.5322C2.61465 20.58 3.99921 21.0073 5.30968 20.8144C5.87884 20.7305 6.38709 21.1809 6.38709 21.756V24.8294C6.38709 25.9929 7.33013 26.936 8.49361 26.936H11.5669C12.142 26.936 12.5924 26.4285 12.5085 25.8593C12.3156 24.5482 12.743 23.1643 13.7907 22.1803C15.3956 20.6725 17.9348 20.6725 19.5397 22.1803C20.5874 23.1642 21.0148 24.5481 20.8219 25.8593C20.738 26.4284 21.1884 26.936 21.7635 26.936H24.8368C26.0003 26.936 26.9433 25.9929 26.9433 24.8294V21.756C26.9433 21.1809 26.4358 20.7305 25.8667 20.8144C24.5555 21.0073 23.1717 20.58 22.1878 19.5322C21.7219 19.0363 21.4005 18.4512 21.2225 17.832H0.665527C0.843574 18.4512 1.16502 19.0364 1.63078 19.5322Z" fill="url(#paint1_linear_61_33736)"/>
<path d="M22.1885 34.3386C20.6807 35.9437 20.6807 38.4829 22.1885 40.0878C23.1723 41.1356 24.5563 41.563 25.8674 41.37C26.4365 41.2862 26.9441 41.7366 26.9441 42.3116V45.3851C26.9441 46.5486 26.001 47.4917 24.8375 47.4917H21.7642C21.1891 47.4917 20.7388 46.9841 20.8226 46.415C21.0155 45.1038 20.5882 43.7199 19.5404 42.7359C17.9355 41.2281 15.3963 41.2281 13.7914 42.7359C12.7437 43.7198 12.3164 45.1037 12.5092 46.415C12.5931 46.984 12.1427 47.4917 11.5677 47.4917H8.49406C7.33058 47.4917 6.38754 46.5486 6.38754 45.3851V42.3116C6.38754 41.7366 5.87929 41.2862 5.31013 41.37C3.99975 41.5629 2.61519 41.1356 1.63132 40.0878C0.123544 38.4828 0.123544 35.9436 1.63132 34.3386C2.61519 33.2909 3.99985 32.8634 5.31013 33.0564C5.87929 33.1403 6.38754 32.6899 6.38754 32.1148V29.0414C6.38754 27.8779 7.33058 26.9348 8.49406 26.9348H11.5674C12.1425 26.9348 12.5928 26.4265 12.509 25.8574C12.3161 24.5469 12.7434 23.1623 13.7911 22.1784C15.3961 20.6705 17.9353 20.6705 19.5402 22.1784C20.5879 23.1623 21.0152 24.5469 20.8223 25.8574C20.7385 26.4265 21.1889 26.9348 21.7639 26.9348H24.8373C26.0007 26.9348 26.9438 27.8779 26.9438 29.0414V32.1148C26.9438 32.6899 26.4363 33.1403 25.8671 33.0564C24.5563 32.8634 23.1723 33.2909 22.1885 34.3386Z" fill="url(#paint2_linear_61_33736)"/>
<path d="M42.7448 34.3386C41.2371 35.9437 41.2371 38.4829 42.7448 40.0878C43.7287 41.1356 45.1126 41.563 46.4237 41.37C46.9928 41.2862 47.5004 41.7366 47.5004 42.3116V45.3851C47.5004 46.5486 46.5574 47.4917 45.3939 47.4917H42.3206C41.7455 47.4917 41.2951 46.9841 41.379 46.415C41.5719 45.1038 41.1445 43.7199 40.0968 42.7359C38.4919 41.2281 35.9527 41.2281 34.3478 42.7359C33.3001 43.7198 32.8727 45.1037 33.0656 46.415C33.1495 46.984 32.6991 47.4917 32.124 47.4917H29.0507C27.8872 47.4917 26.9442 46.5486 26.9442 45.3851V42.3116C26.9442 41.7366 26.4359 41.2862 25.8668 41.37C24.5564 41.5629 23.1718 41.1356 22.188 40.0878C20.6802 38.4828 20.6802 35.9436 22.188 34.3386C23.1718 33.2909 24.5565 32.8634 25.8668 33.0564C26.4359 33.1403 26.9442 32.6899 26.9442 32.1148V29.0414C26.9442 27.8779 27.8872 26.9348 29.0507 26.9348H32.124C32.6991 26.9348 33.1495 26.4265 33.0656 25.8574C32.8727 24.5469 33.3001 23.1623 34.3478 22.1784C35.9527 20.6705 38.4919 20.6705 40.0968 22.1784C41.1445 23.1623 41.5719 24.5469 41.379 25.8574C41.2951 26.4265 41.7455 26.9348 42.3206 26.9348H45.3939C46.5574 26.9348 47.5004 27.8779 47.5004 29.0414V32.1148C47.5004 32.6899 46.9929 33.1403 46.4237 33.0564C45.1125 32.8634 43.7287 33.2909 42.7448 34.3386Z" fill="url(#paint3_linear_61_33736)"/>
<defs>
<linearGradient id="paint0_linear_61_33736" x1="9.04384" y1="9.03595" x2="21.3484" y2="21.3402" gradientUnits="userSpaceOnUse">
<stop stop-color="#61D0FF"/>
<stop offset="1" stop-color="#45A2E0"/>
</linearGradient>
<linearGradient id="paint1_linear_61_33736" x1="13.8045" y1="19.9369" x2="13.8045" y2="27.146" gradientUnits="userSpaceOnUse">
<stop stop-color="#2F73A0" stop-opacity="0"/>
<stop offset="1" stop-color="#2F73A0"/>
</linearGradient>
<linearGradient id="paint2_linear_61_33736" x1="9.04433" y1="29.5915" x2="21.3489" y2="41.8958" gradientUnits="userSpaceOnUse">
<stop stop-color="#61D0FF"/>
<stop offset="1" stop-color="#4EB1EA"/>
</linearGradient>
<linearGradient id="paint3_linear_61_33736" x1="25.7188" y1="25.7095" x2="39.4913" y2="39.4816" gradientUnits="userSpaceOnUse">
<stop stop-color="#61D0FF"/>
<stop offset="1" stop-color="#4DAEE8"/>
</linearGradient>
</defs>
</svg>
