<svg width="28" height="46" viewBox="0 0 28 46" fill="none" xmlns="http://www.w3.org/2000/svg">
<path fill-rule="evenodd" clip-rule="evenodd" d="M13.9988 0.991699C6.33513 0.991699 0.123989 7.2053 0.123989 14.8689C0.123989 20.061 2.97674 24.588 7.19971 26.9672C7.52851 27.1516 7.72283 27.4231 7.72283 27.8069V33.8336H20.2771V27.8069C20.2771 27.4033 20.4515 27.1616 20.7929 26.9698C25.0208 24.5905 27.876 20.0635 27.876 14.869C27.876 7.2053 21.6624 0.991699 13.9988 0.991699V0.991699Z" fill="#F58A26"/>
<path fill-rule="evenodd" clip-rule="evenodd" d="M13.9985 0.991699C6.33486 0.991699 0.123721 7.2053 0.123721 14.8689C0.123721 20.061 2.97647 24.588 7.19944 26.9672C7.52824 27.1516 7.72257 27.4231 7.72257 27.8069V33.8336H10.3585V27.8069C10.3585 27.4231 10.1666 27.1516 9.83774 26.9672C5.61231 24.588 2.75965 20.061 2.75965 14.8689C2.75965 7.6488 8.27312 1.71917 15.3164 1.05401C14.8829 1.01411 14.4444 0.991699 13.9985 0.991699V0.991699Z" fill="#F5AE6C"/>
<path fill-rule="evenodd" clip-rule="evenodd" d="M7.96731 37.628V39.9599C7.96731 40.8918 8.72968 41.6541 9.66141 41.6541L14.141 42.0054L18.3366 41.6541C19.2708 41.6541 20.0332 40.8918 20.0332 39.9599V37.628L14.0314 37.0774L7.96731 37.628Z" fill="#F58A26"/>
<path fill-rule="evenodd" clip-rule="evenodd" d="M7.96724 37.6281V39.96C7.96724 40.8918 8.7296 41.6541 9.66133 41.6541H12.2998C11.3655 41.6541 10.6032 40.8918 10.6032 39.96V37.6281H7.96724Z" fill="#D87921"/>
<path fill-rule="evenodd" clip-rule="evenodd" d="M17.6709 15.9427H10.3262V33.8336H17.6709V15.9427Z" fill="#F5AE6C"/>
<path fill-rule="evenodd" clip-rule="evenodd" d="M20.2768 33.3951H7.72247C6.55405 33.3951 5.59727 34.3493 5.59727 35.5178C5.59727 36.6863 6.55405 37.6405 7.72247 37.6405H20.2768C21.4452 37.6405 22.3994 36.6864 22.3994 35.5178C22.3994 34.3493 21.4452 33.3951 20.2768 33.3951ZM9.66081 41.6541C9.66081 44.0509 11.6042 45.9917 13.9985 45.9917C16.3952 45.9917 18.3361 44.0509 18.3361 41.6541H9.66081Z" fill="#F58A26"/>
<path fill-rule="evenodd" clip-rule="evenodd" d="M10.3584 33.3951H7.72248C6.55406 33.3951 5.59728 34.3493 5.59728 35.5178C5.59728 36.6863 6.55406 37.6405 7.72248 37.6405H10.3584C9.1899 37.6405 8.23576 36.6864 8.23576 35.5178C8.23576 34.3493 9.1899 33.3951 10.3584 33.3951ZM9.66082 41.6541C9.66082 44.0509 11.6042 45.9917 13.9985 45.9917C14.4594 45.9917 14.9003 45.9219 15.3164 45.7874C13.5675 45.2293 12.2993 43.5899 12.2993 41.6541H9.66082Z" fill="#D87921"/>
<path fill-rule="evenodd" clip-rule="evenodd" d="M15.2168 15.9427H12.7801V33.3802H15.2168V15.9427Z" fill="#D87921"/>
<path fill-rule="evenodd" clip-rule="evenodd" d="M13.7144 7.63391L12.1624 11.4383L10.3261 15.9427H13.9985H17.6709L15.8346 11.4383L14.2825 7.63391H13.7144Z" fill="#FFF9DF"/>
<path fill-rule="evenodd" clip-rule="evenodd" d="M12.1627 11.4383L13.7148 7.63382C13.8543 7.28999 14.1359 7.27259 14.2828 7.63382L15.835 11.4383H12.1627Z" fill="#D87921"/>
</svg>
