<svg width="54" height="54" viewBox="0 0 54 54" fill="none" xmlns="http://www.w3.org/2000/svg">
<path d="M19.5892 41.8576C15.7322 43.5287 13.0264 47.3715 13.0264 51.8357V51.9392C13.0264 52.7968 13.7216 53.492 14.5791 53.492H39.4224C40.28 53.492 40.9752 52.7968 40.9752 51.9392V51.8357C40.9752 47.3671 38.2652 43.5209 34.402 41.8524L19.5892 41.8576Z" fill="#90EB9F"/>
<path d="M40.9745 51.8357V51.9392C40.9745 52.7963 40.2788 53.492 39.4217 53.492H27V41.8524H34.4013C38.0013 43.3097 40.9745 47.19 40.9745 51.8357Z" fill="#5BC998"/>
<path d="M34.4018 41.8524V42.959C34.4028 47.0428 31.0811 50.3657 26.9974 50.3667H26.9953C22.9117 50.3667 19.5899 47.0458 19.5889 42.9631V41.8576L34.4018 41.8524Z" fill="#5BC998"/>
<path d="M34.4013 41.8524V42.959C34.4023 47.0418 31.0827 50.3636 27 50.3667V41.8523H34.4013V41.8524Z" fill="#288C79"/>
<path d="M31.296 42.9593C31.2967 45.3309 29.3679 47.2608 26.9965 47.2615C26.9961 47.2615 26.9956 47.2615 26.9951 47.2615C24.6243 47.2615 22.6951 45.3329 22.6943 42.9623V39.5171H31.2959V42.9593H31.296Z" fill="#FBD2BE"/>
<path d="M31.2958 39.517C31.2958 43.2067 31.2964 42.989 31.2948 43.0211C31.2617 45.3627 29.3487 47.2592 27 47.2613V39.5171H31.2958V39.517Z" fill="#FFAE8D"/>
<path d="M35.4999 6.49569L30.6675 5.65266L28.3724 1.31699C27.7903 0.217134 26.2104 0.21672 25.6279 1.31699L23.3329 5.65266L18.5003 6.49569C17.2744 6.70956 16.7857 8.21209 17.6522 9.10606L21.0663 12.6286L20.3747 17.4853C20.1992 18.7174 21.4771 19.6464 22.5951 19.0986L27.0001 16.9401L31.4051 19.0985C32.5183 19.6441 33.8017 18.7226 33.6256 17.4852L32.934 12.6285L36.348 9.10596C37.2143 8.21241 36.7264 6.70966 35.4999 6.49569Z" fill="#90EB9F"/>
<path d="M36.3483 9.10657L32.9334 12.6283L33.626 17.4854C33.8019 18.7224 32.5183 19.6437 31.4055 19.0982L27 16.9397V0.49176C27.5404 0.49176 28.0807 0.767113 28.3726 1.31678L30.6676 5.65214L35.4996 6.49579C36.7262 6.71007 37.2137 8.21209 36.3483 9.10657Z" fill="#5BC998"/>
<path d="M52.2136 17.6093L48.6988 16.9962L47.0295 13.8427C46.4473 12.743 44.8674 12.7424 44.2849 13.8427L42.6157 16.9962L39.1009 17.6093C37.875 17.8231 37.3863 19.3257 38.2528 20.2196L40.7359 22.7817L40.2329 26.3141C40.057 27.5504 41.3412 28.4726 42.4534 27.9273L45.6573 26.3574L48.8612 27.9273C49.9788 28.4749 51.2571 27.5466 51.0816 26.3141L50.5787 22.7817L53.0618 20.2196C53.9278 19.3261 53.44 17.8234 52.2136 17.6093Z" fill="#90EB9F"/>
<path d="M53.0627 20.2199L50.5794 22.7819L51.0824 26.3138C51.2574 27.5467 49.979 28.4753 48.862 27.9277L45.6582 26.3573V13.0172C46.1986 13.0172 46.7389 13.2926 47.0298 13.8422L48.6995 16.9964L52.2139 17.6092C53.4405 17.8235 53.9281 19.3265 53.0627 20.2199Z" fill="#5BC998"/>
<path d="M14.8991 17.6093L11.3843 16.9962L9.71515 13.8428C9.13298 12.7429 7.55301 12.7423 6.97053 13.8428L5.30123 16.9962L1.78644 17.6093C0.560502 17.8232 0.0718023 19.3257 0.938335 20.2197L3.42148 22.7817L2.91849 26.3141C2.74314 27.546 4.02115 28.4753 5.13891 27.9274L8.34284 26.3574L11.5468 27.9274C12.66 28.473 13.9434 27.5515 13.7672 26.3141L13.2642 22.7817L15.7473 20.2197C16.6134 19.3261 16.1255 17.8234 14.8991 17.6093Z" fill="#90EB9F"/>
<path d="M15.7463 20.2199L13.264 22.7819L13.766 26.3138C13.9431 27.5519 12.6595 28.4732 11.5456 27.9277L8.3418 26.3573V13.0172C8.88319 13.0172 9.42354 13.2926 9.71442 13.8422L11.3841 16.9964L14.8985 17.6092C16.1252 17.8235 16.6127 19.3265 15.7463 20.2199Z" fill="#5BC998"/>
<path d="M36.3161 34.7552C36.3161 39.8928 32.1372 44.0718 26.9998 44.0718C21.8624 44.0718 17.6836 39.8928 17.6836 34.7552C17.6962 27.4042 17.6514 27.7499 17.7198 27.4406C17.9835 30.758 20.7007 33.7314 24.6636 33.7314C24.9491 33.7314 25.1855 33.7159 25.323 33.7159C26.0174 33.7159 26.4584 33.1875 26.4565 32.6217C26.4964 31.1082 26.3375 30.8674 26.6107 30.5969C26.9107 30.2939 26.822 30.4927 35.2085 30.4365C35.7002 30.4365 36.1174 30.1094 36.2541 29.6622C36.3638 30.0396 36.2947 29.8795 36.3161 34.7552Z" fill="#FDDFCC"/>
<path d="M36.3164 34.7552C36.3164 39.8753 32.153 44.0718 27.0001 44.0718C27.0001 43.9073 27.0004 45.74 26.998 31.6497H27.0001V30.4396C27.5922 30.3889 29.2889 30.4758 35.2087 30.4365C35.7004 30.4365 36.1176 30.1094 36.2542 29.6622C36.2936 29.7978 36.3101 29.8651 36.3153 30.1218C36.3164 30.1239 36.3164 30.127 36.3153 30.129C36.3257 30.5897 36.3029 31.6528 36.3164 34.7552Z" fill="#FBD2BE"/>
<path d="M30.8776 22.333H23.1221C20.1234 22.333 17.6836 24.7728 17.6836 27.7717C17.6836 29.663 18.4263 31.4348 19.775 32.7606C22.2505 35.1943 25.1984 34.71 25.4769 34.7549C26.3259 34.7404 27.0059 34.0465 27.0031 33.1972L26.998 31.6497H34.7634C35.621 31.6497 36.3162 30.9544 36.3162 30.0969V27.7717C36.3161 24.7728 33.8764 22.333 30.8776 22.333Z" fill="#292F6D"/>
<path d="M27 32.2687C27.002 33.2195 27.0058 33.2055 27 33.2956V32.2687Z" fill="#474E8C"/>
<path d="M36.3162 27.7718C36.3162 30.2742 36.3169 30.1088 36.3152 30.1216C36.3162 30.1237 36.3162 30.1268 36.3152 30.1289C36.2986 30.9715 35.6103 31.6495 34.7635 31.6495H27V22.3329H30.8776C33.8765 22.333 36.3162 24.773 36.3162 27.7718Z" fill="#161E4C"/>
</svg>
