<svg width="56" height="56" viewBox="0 0 56 56" fill="none" xmlns="http://www.w3.org/2000/svg">
<path d="M17.495 35.6572C17.3064 35.3376 17.1232 35.011 16.9454 34.6772C16.9077 34.6066 16.8727 34.5329 16.8354 34.4617C16.6844 34.1729 16.5363 33.8807 16.3934 33.5826C16.3314 33.4532 16.2726 33.3209 16.2122 33.1899C16.0981 32.9424 15.9858 32.6933 15.8774 32.4401C15.8151 32.2943 15.7546 32.1472 15.6942 31.9996C15.6442 31.8775 15.591 31.7581 15.5424 31.6348C15.5327 31.6533 15.5231 31.6717 15.5135 31.6902C15.4024 31.906 15.301 32.1206 15.2119 32.3334C15.199 32.364 15.1877 32.3943 15.1754 32.4249C15.0866 32.6442 15.0071 32.862 14.942 33.0767C14.9377 33.0907 14.9347 33.1045 14.9305 33.1185C14.8671 33.3325 14.8156 33.5437 14.7762 33.752C14.7729 33.7694 14.7683 33.7871 14.7652 33.8044C14.7292 34.0053 14.7044 34.208 14.6907 34.4116C14.6886 34.4414 14.6856 34.4715 14.684 34.5012C14.6743 34.6892 14.6758 34.8777 14.6885 35.0656C14.6906 35.0979 14.6929 35.1302 14.6957 35.1623C14.7112 35.3417 14.7384 35.52 14.777 35.696C14.7834 35.7245 14.7909 35.7525 14.7978 35.7808C14.8396 35.9549 14.8938 36.1257 14.9599 36.292C14.9674 36.3108 14.9766 36.3287 14.9844 36.3473C15.0561 36.5199 15.1412 36.6865 15.2389 36.8457C15.295 36.9352 15.3564 37.0213 15.4227 37.1035C15.4443 37.1304 15.4685 37.1551 15.4911 37.1812C15.5376 37.2349 15.5848 37.2879 15.6357 37.338C15.6649 37.3668 15.6963 37.3938 15.7269 37.4214C15.7757 37.4652 15.8254 37.5082 15.8776 37.5489C15.9119 37.5757 15.9475 37.6014 15.9834 37.6269C16.0369 37.6648 16.092 37.7012 16.1487 37.7361C16.1867 37.7595 16.2249 37.7825 16.2644 37.8045C16.3244 37.838 16.3868 37.8691 16.4501 37.8993C16.49 37.9184 16.5292 37.938 16.5703 37.9557C16.6411 37.9862 16.7149 38.0134 16.7894 38.04C16.8266 38.0533 16.8625 38.0681 16.9007 38.0805C17.0088 38.1154 17.1206 38.1464 17.2358 38.1735C17.2423 38.175 17.2483 38.1771 17.2548 38.1786C17.2067 37.3308 17.2877 36.4806 17.495 35.6572Z" fill="#24B0FF"/>
<path d="M32.0976 20.4633C32.1455 20.4742 32.1934 20.4889 32.2413 20.5002C32.5454 20.5716 32.8494 20.6496 33.1534 20.7341C33.2281 20.7549 33.3028 20.7743 33.3775 20.7959C33.7265 20.8965 34.0742 21.0054 34.4205 21.1225C34.4465 21.1313 34.4729 21.1382 34.4989 21.147L34.4982 21.1445C34.4913 21.1217 34.4831 21.1007 34.4761 21.078C34.426 20.9163 34.3736 20.7573 34.3169 20.6036C34.2943 20.5425 34.2689 20.485 34.2453 20.4251C34.2013 20.3137 34.1577 20.2019 34.1102 20.095C34.0804 20.0279 34.0478 19.9644 34.0167 19.8991C33.9715 19.8044 33.9266 19.7092 33.8785 19.6183C33.8434 19.552 33.8059 19.489 33.7693 19.4247C33.7212 19.3402 33.6733 19.2555 33.6226 19.1746C33.583 19.1112 33.5412 19.0509 33.5 18.9897C33.4485 18.9133 33.3968 18.8371 33.3429 18.7642C33.2993 18.705 33.2538 18.6484 33.2086 18.5916C33.1534 18.5223 33.0978 18.4538 33.0404 18.3881C32.9929 18.3336 32.9441 18.2812 32.895 18.2292C32.8361 18.1667 32.7764 18.1055 32.7153 18.0466C32.6643 17.9973 32.6125 17.9494 32.5599 17.9028C32.4972 17.847 32.4335 17.793 32.3687 17.7408C32.3144 17.6969 32.2595 17.654 32.2037 17.6127C32.1371 17.5634 32.0692 17.5165 32.0006 17.4708C31.9434 17.4327 31.886 17.395 31.8274 17.3594C31.7566 17.3165 31.6841 17.2766 31.6113 17.2374C31.5518 17.2054 31.4925 17.1731 31.4317 17.1436C31.3561 17.1069 31.2785 17.0739 31.2009 17.0412C31.1397 17.0154 31.079 16.9887 31.0167 16.9654C30.9354 16.935 30.852 16.9091 30.7688 16.883C30.7072 16.8636 30.6463 16.8426 30.5835 16.8256C30.4948 16.8015 30.4038 16.7828 30.3129 16.7635C30.2526 16.7506 30.1934 16.7355 30.1322 16.7247C30.0306 16.7069 29.9263 16.6953 29.8222 16.6833C29.7693 16.6772 29.7176 16.6681 29.6641 16.6635C29.5052 16.65 29.344 16.6426 29.1798 16.6426C29.0842 16.6426 28.9883 16.6545 28.8926 16.6583C29.6523 17.0485 30.3269 17.5858 30.8771 18.239C31.4273 18.8922 31.8422 19.6483 32.0976 20.4633Z" fill="#24B0FF"/>
<path d="M21.8649 36.2001C21.8203 36.1457 21.7765 36.0908 21.7325 36.0359C21.4702 35.708 21.2185 35.3712 20.9775 35.0255C20.9422 34.9745 20.9082 34.9225 20.8733 34.8711C20.6302 34.5131 20.3968 34.1473 20.1776 33.7708C20.1567 33.7348 20.1372 33.6978 20.1165 33.6616C19.8885 33.264 19.6714 32.8582 19.4706 32.4412C18.7814 30.9922 18.2515 29.4727 17.8901 27.9093C17.5346 26.3396 17.2904 24.7466 17.1596 23.1425C17.151 23.052 17.1453 22.9627 17.1399 22.873L17.1315 22.7428C16.8503 18.7203 18.093 15.0069 20.6302 12.2861C20.7907 12.1141 20.9564 11.9484 21.1252 11.7867C21.1792 11.7349 21.2351 11.6855 21.29 11.6348C21.4075 11.5261 21.5261 11.4192 21.6473 11.3155C21.7123 11.2599 21.7782 11.2057 21.8442 11.1515C21.9612 11.0556 22.0797 10.9619 22.1997 10.8707C22.2667 10.8197 22.3335 10.7686 22.4014 10.7191C22.5325 10.6234 22.6658 10.5316 22.8002 10.4414C22.8577 10.4029 22.9142 10.3627 22.9722 10.3252C23.1647 10.2007 23.3597 10.0809 23.5581 9.96789C23.5832 9.9536 23.609 9.94096 23.6342 9.92685C23.8087 9.829 23.9852 9.73555 24.1636 9.64652C24.2314 9.61279 24.3001 9.58163 24.3684 9.54919C24.5072 9.48329 24.6466 9.41938 24.7875 9.35892C24.865 9.32569 24.9427 9.29375 25.0208 9.26217C25.1581 9.20665 25.2963 9.15385 25.4354 9.10377C25.4841 9.08615 25.5316 9.06532 25.5804 9.04834H25.5062C24.0708 9.05908 22.6529 9.3634 21.3395 9.94259C20.0262 10.5218 18.8452 11.3636 17.8693 12.4162C15.295 15.1124 13.9852 18.9305 14.1813 23.167C14.2181 23.8214 14.2903 24.4733 14.3979 25.1199C14.7154 27.046 15.2185 28.9369 15.9004 30.7661C16.494 32.3901 17.2362 33.9559 18.1174 35.4436C18.6785 36.3872 19.3107 37.2867 20.0085 38.1343C20.1696 38.1015 20.3319 38.0657 20.4969 38.0235C20.5452 38.0111 20.5921 38.0022 20.6407 37.9891C20.8888 37.9219 21.1411 37.8439 21.3977 37.7553C21.4664 37.7316 21.5369 37.7031 21.6062 37.678C21.7957 37.6092 21.9865 37.5368 22.1799 37.4569C22.2742 37.418 22.3696 37.3757 22.4649 37.3341C22.5582 37.2933 22.6529 37.2483 22.7471 37.205C22.7275 37.1843 22.7102 37.1614 22.6907 37.1406C22.4048 36.8367 22.1295 36.5232 21.8649 36.2001Z" fill="#24B0FF"/>
<path d="M36.8766 33.9173C37.2816 34.5488 37.6225 35.2191 37.8943 35.9183L37.9512 36.0658L37.9477 36.0715C38.1927 36.7243 38.3589 37.4041 38.4428 38.0963L38.4574 38.0942L38.4805 38.44C38.6173 40.4934 37.8008 41.9814 36.2402 42.5218C36.066 42.5822 35.8885 42.6338 35.709 42.6803C35.6528 42.6948 35.5956 42.7065 35.539 42.7197C35.4131 42.749 35.2862 42.7758 35.1578 42.7985C35.0916 42.8101 35.025 42.8206 34.9582 42.8305C34.8325 42.8491 34.7055 42.864 34.5775 42.8763C34.513 42.8825 34.4489 42.8896 34.3838 42.8942C34.229 42.9051 34.0725 42.9107 33.9147 42.9125C33.8828 42.9129 33.8519 42.9163 33.8198 42.9163L33.8053 42.9155C33.549 42.9151 33.2879 42.8995 33.0241 42.8753C32.9716 42.8704 32.9191 42.8659 32.8663 42.8602C32.6388 42.8354 32.4096 42.805 32.177 42.7627C31.9265 42.9687 31.6644 43.1633 31.4054 43.3611C31.264 43.4692 31.1278 43.5825 30.9842 43.6878C30.5566 44.0015 30.1205 44.3037 29.6772 44.5907C29.2783 44.8493 28.8679 45.0965 28.4544 45.3373C28.4029 45.3673 28.3535 45.4007 28.3019 45.4304C31.3112 47.2606 34.8135 48.1135 38.3273 47.8719C39.3874 47.8418 40.4259 47.565 41.3603 47.0635C44.6799 45.1532 44.7152 39.6781 44.2215 37.4738C43.9626 36.3176 43.0315 33.303 39.9825 30.2881C38.5568 28.8923 36.9232 27.726 35.1401 26.8307L34.9488 26.7318C34.8246 26.6672 34.7004 26.6026 34.5703 26.5413C33.7256 26.1469 32.8467 25.8306 31.9443 25.5964C31.5853 25.5011 31.2223 25.4182 30.8552 25.3476C30.7388 25.3251 30.6205 25.3111 30.5034 25.291C30.2517 25.2478 30.0002 25.2034 29.7461 25.1716C29.6067 25.1541 29.466 25.1457 29.3261 25.1316C29.0924 25.1081 28.8591 25.0825 28.6243 25.0685C28.4742 25.0595 28.3236 25.0595 28.1733 25.0545C27.9478 25.0469 27.7225 25.0371 27.4969 25.0382C27.3398 25.0389 27.1831 25.0485 27.0262 25.0534C26.8075 25.0604 26.5888 25.0654 26.3708 25.0805C26.2085 25.0918 26.0473 25.1114 25.8855 25.1273C25.6742 25.1479 25.4627 25.1669 25.2527 25.1953C25.0865 25.2178 24.9221 25.2482 24.757 25.2756C24.5539 25.3091 24.3506 25.3413 24.1494 25.3822C23.9798 25.4167 23.8125 25.4588 23.6445 25.4985C23.4965 25.5334 23.3488 25.5687 23.2021 25.6076C23.2053 25.6326 23.2084 25.6577 23.2117 25.6826C23.2495 25.9652 23.2954 26.2445 23.3522 26.5202C23.3606 26.5614 23.3706 26.6022 23.3795 26.6433C23.5054 27.2231 23.6751 27.7926 23.8871 28.3467C23.9018 28.3849 23.9153 28.4233 23.9303 28.4614C24.0346 28.7262 24.1502 28.9889 24.2748 29.2505C24.2865 29.275 24.2985 29.2995 24.3104 29.324C26.4005 28.6207 28.6561 28.5755 30.7727 29.1944L30.7774 29.1828L31.0652 29.2791C32.1453 29.6461 33.1584 30.1863 34.065 30.8785L34.0733 30.8648L34.3611 31.0973L34.3648 31.1005L34.5793 31.274L34.5745 31.2819C35.4679 32.0418 36.2437 32.9299 36.8766 33.9173Z" fill="#24B0FF"/>
<path d="M32.8271 42.21C33.903 42.3575 34.9983 42.2558 36.0286 41.9129C37.5816 41.375 37.8581 39.8675 37.8497 38.8237C37.2442 38.8872 36.6342 38.8968 36.0269 38.8525C35.7834 39.1592 35.5321 39.4607 35.2732 39.757C35.2337 39.8023 35.1914 39.8454 35.1516 39.8904C34.909 40.1646 34.6605 40.4341 34.4061 40.6991C34.3054 40.8036 34.201 40.9049 34.0984 41.0078C33.8969 41.2101 33.6934 41.4103 33.4848 41.6063C33.3672 41.7168 33.2479 41.8253 33.1282 41.9338C33.0271 42.0252 32.9296 42.1201 32.8271 42.21Z" fill="#24B0FF"/>
<path d="M27.5836 24.3916C29.111 24.3895 30.6323 24.585 32.1096 24.9732C32.3579 25.0392 32.6004 25.1088 32.8369 25.1822C33.5236 25.3936 34.1945 25.6529 34.8448 25.9583C34.9827 26.0231 35.1144 26.0915 35.2462 26.1601L35.4321 26.2562C37.2746 27.1817 38.9625 28.3872 40.4356 29.8299C43.606 32.9648 44.5791 36.1214 44.8504 37.3328C45.2704 39.2093 45.3369 43.0195 43.6929 45.6444C45.7706 44.0721 48.0514 41.358 47.862 37.0855C47.6549 32.4233 45.2884 28.3243 41.0184 25.2313C40.0831 24.558 39.1025 23.9499 38.0836 23.4112C37.0419 22.8559 35.9642 22.3708 34.8578 21.9591C33.8529 21.5861 32.8235 21.283 31.7768 21.0519C29.0023 20.4305 26.1291 20.392 23.339 20.9388C23.3222 21.0029 23.3057 21.0672 23.2907 21.1324C23.2746 21.2019 23.2579 21.2709 23.2437 21.3416C23.2229 21.4452 23.2058 21.5512 23.189 21.6573C23.1781 21.7263 23.1658 21.7943 23.1565 21.8642C23.1411 21.9818 23.1302 22.102 23.1195 22.2223C23.1141 22.2835 23.1065 22.3434 23.1023 22.4053C23.09 22.5884 23.0824 22.7741 23.0811 22.9628C23.0792 23.2356 23.0799 23.5189 23.0841 23.8066C23.0849 23.8622 23.0855 23.9173 23.0867 23.9735C23.0929 24.2625 23.1064 24.56 23.1282 24.864C23.1302 24.8929 23.1331 24.9225 23.1354 24.9515C24.5885 24.5779 26.0832 24.3898 27.5836 24.3916Z" fill="#24B0FF"/>
<path d="M23.8556 29.8641C23.1368 28.4715 22.6856 26.9564 22.5254 25.3975C22.4495 24.5867 22.4198 23.7723 22.4365 22.9582C22.4364 22.1519 22.5474 21.3494 22.7663 20.5733C23.0593 19.4744 23.6555 18.4802 24.487 17.7042C25.3184 16.9282 26.3514 16.4019 27.4679 16.1854C28.03 16.0612 28.604 15.9984 29.1797 15.998C32.1634 15.998 34.3653 17.9694 35.2419 21.4149C36.3191 21.8236 37.3693 22.3004 38.3861 22.8422C39.2668 23.3089 40.1203 23.8252 40.9424 24.3887C40.9464 24.3463 40.9499 24.3042 40.9535 24.2616C41.105 22.1773 40.8297 20.084 40.1445 18.1098C39.4593 16.1356 38.3786 14.3218 36.9684 12.7796C34.7562 10.3735 32.0549 9.04834 29.3618 9.04834C27.8068 9.06441 26.2716 9.39903 24.8509 10.0315C23.4303 10.664 22.1543 11.581 21.1019 12.7259C18.688 15.3143 17.5064 18.8556 17.7747 22.6976L17.7835 22.8334C17.7886 22.9158 17.7936 22.9981 17.8016 23.0816C17.9298 24.6565 18.1692 26.2204 18.5179 27.7616C18.8686 29.2794 19.3829 30.7547 20.0518 32.1617C20.8904 33.9133 22.0074 35.5175 23.3595 36.9115C23.4724 36.8542 23.5854 36.7947 23.6986 36.7343C23.8112 36.6743 23.9237 36.6161 24.0365 36.5531C24.1929 36.4658 24.3495 36.3723 24.506 36.2794C24.61 36.2177 24.7139 36.1587 24.8179 36.0946C24.9956 35.985 25.1733 35.8685 25.3509 35.7519C25.4339 35.6975 25.5171 35.6462 25.6001 35.5903C25.8612 35.4141 26.1217 35.2309 26.3817 35.0407C26.5463 34.92 26.7072 34.7935 26.8673 34.6629C26.9152 34.6239 26.963 34.583 27.0107 34.5429C27.0723 34.4912 27.134 34.4357 27.1955 34.382C25.8631 33.0511 24.7373 31.5282 23.8556 29.8641Z" fill="#24B0FF"/>
<path d="M12.2769 45.8567C15.2354 48.8824 21.2133 48.6006 27.5075 45.1375C28.1244 44.7982 28.7364 44.4323 29.3266 44.0499C30.2147 43.4743 31.068 42.8466 31.882 42.1702C33.2634 41.0226 34.519 39.7314 35.6275 38.3185C36.207 37.5783 36.7437 36.8056 37.2349 36.0041C36.575 34.3998 35.5488 32.9722 34.2384 31.8354C34.1855 31.921 34.1312 32.0027 34.0779 32.0872C33.9891 32.2283 33.9001 32.3691 33.8101 32.5075C33.7243 32.6393 33.6377 32.7688 33.551 32.8981C33.4596 33.0343 33.3682 33.1702 33.2759 33.3036C33.1885 33.4296 33.1004 33.5533 33.0122 33.6769C32.9186 33.808 32.8251 33.9388 32.7305 34.0671C32.6414 34.1881 32.5514 34.3067 32.4614 34.4253C32.3662 34.5507 32.271 34.6761 32.1749 34.7987C32.084 34.9148 31.9923 35.0284 31.9006 35.1421C31.8034 35.2625 31.7062 35.383 31.6082 35.5008C31.5166 35.6109 31.4243 35.7184 31.332 35.8261C31.2325 35.9423 31.1331 36.0585 31.0328 36.1719C30.94 36.2769 30.8465 36.3794 30.7531 36.482C30.6521 36.593 30.5512 36.7041 30.4496 36.8123C30.3557 36.9124 30.2613 37.0098 30.1668 37.1075C30.0643 37.2137 29.9619 37.3201 29.8587 37.4235C29.7641 37.5185 29.6689 37.6107 29.5739 37.7035C29.4697 37.805 29.3657 37.9068 29.261 38.0057C29.1662 38.0952 29.0709 38.1821 28.9757 38.2695C28.8698 38.3668 28.764 38.4643 28.6577 38.5589C28.5627 38.6434 28.4673 38.7251 28.3719 38.8075C28.2645 38.9004 28.1571 38.9937 28.0492 39.0839C27.9544 39.1633 27.8592 39.2399 27.764 39.3172C27.6551 39.4058 27.5463 39.4947 27.4371 39.5806C27.3423 39.6552 27.2473 39.7269 27.1523 39.7995C27.0421 39.8837 26.9321 39.9684 26.8217 40.0499C26.7268 40.12 26.6317 40.1873 26.5366 40.2555C26.426 40.3348 26.3154 40.4148 26.2046 40.4916C26.1096 40.5574 26.0145 40.6204 25.9194 40.6843C25.808 40.7593 25.6966 40.8349 25.5851 40.9073C25.4904 40.9687 25.3958 41.0273 25.301 41.0869C25.1893 41.1572 25.0776 41.2283 24.9659 41.2961C24.8708 41.3538 24.7758 41.4086 24.6808 41.4644C24.5694 41.53 24.4579 41.5963 24.3466 41.6593C24.2516 41.7131 24.1568 41.7639 24.0619 41.8159C23.9505 41.8769 23.8392 41.9388 23.7279 41.9974C23.6332 42.0473 23.5387 42.0943 23.4441 42.1424C23.3333 42.1988 23.2224 42.2562 23.1117 42.3102C23.0166 42.3567 22.9218 42.4002 22.8268 42.445C22.7171 42.4967 22.6073 42.5494 22.4979 42.5987C22.403 42.6416 22.3086 42.6814 22.214 42.7225C22.105 42.7698 21.9959 42.8183 21.8873 42.8633C21.793 42.9025 21.6993 42.9386 21.6054 42.976C21.4973 43.0191 21.3889 43.0634 21.2812 43.1043C21.1872 43.14 21.094 43.1726 21.0004 43.2066C20.8936 43.2454 20.7866 43.2853 20.6803 43.322C20.5864 43.3544 20.4932 43.3837 20.3998 43.4144C20.2949 43.4489 20.1896 43.4846 20.0854 43.517C19.9932 43.5456 19.9019 43.5712 19.8102 43.5982C19.7055 43.629 19.6004 43.6611 19.4964 43.6899C19.4054 43.715 19.3156 43.7371 19.2253 43.7607C19.1223 43.7876 19.0188 43.8157 18.9166 43.8405C18.8232 43.8632 18.731 43.8827 18.6383 43.9037C18.5404 43.9259 18.4419 43.9495 18.3449 43.9698C18.2529 43.989 18.1622 44.0052 18.071 44.0228C17.9744 44.0414 17.8771 44.0615 17.7813 44.0783C17.6895 44.0944 17.5992 44.1074 17.5082 44.1218C17.4152 44.1366 17.3215 44.1529 17.2295 44.1659C17.1328 44.1796 17.0379 44.19 16.9423 44.2018C16.8574 44.2123 16.7717 44.2245 16.6877 44.2335C16.5778 44.2453 16.4702 44.2536 16.3619 44.263C16.2942 44.2688 16.2255 44.2764 16.1585 44.2813C15.9839 44.294 15.8115 44.3035 15.6412 44.3098C15.4639 44.3163 15.2884 44.3196 15.1148 44.3197C15.0339 44.3197 14.9551 44.3162 14.8751 44.3148C14.8339 44.3141 14.7928 44.3135 14.7518 44.3123C14.2594 44.2999 13.7681 44.258 13.2806 44.1869C13.2495 44.1823 13.2184 44.1777 13.1875 44.1729C12.7397 44.104 12.2971 44.005 11.8626 43.8767C11.8247 43.8654 11.7869 43.8542 11.7494 43.8425C11.5443 43.7785 11.3437 43.7101 11.1515 43.6339L11.1509 43.6336C10.9649 43.5598 10.7873 43.4785 10.6142 43.3936C10.5733 43.3735 10.5327 43.3533 10.4925 43.3326C10.3218 43.2447 10.1558 43.1531 9.99916 43.0543L9.99609 43.0526C10.6497 44.0692 11.4147 45.0098 12.2769 45.8567Z" fill="#24B0FF"/>
<path d="M8.62603 40.4962L8.74982 40.7627C8.85052 40.9712 8.96688 41.1718 9.09789 41.3627C10.1977 42.9149 12.6332 43.7743 15.6177 43.6656C20.8818 43.4701 28.3799 40.1465 33.7348 31.4245C32.9479 30.8194 32.0746 30.3359 31.1441 29.9901C30.4024 31.755 29.2903 33.34 27.8831 34.638C27.5272 34.9659 27.1533 35.2738 26.7633 35.5603C25.7169 36.3347 24.6048 37.016 23.4397 37.5967C22.3361 38.1586 21.1607 38.5664 19.9462 38.8087C19.1622 38.9627 18.3585 38.9903 17.5658 38.8906C16.6839 38.7952 15.8557 38.4199 15.2026 37.8197C15.0072 37.6302 14.8358 37.4174 14.6922 37.1861C13.6467 35.5055 13.8492 33.2006 15.2432 30.8438C14.6451 29.2095 14.1839 27.5283 13.8643 25.8176C9.3526 30.211 7.01093 36.6882 8.62603 40.4962Z" fill="#24B0FF"/>
</svg>
